
<svg id="Layer_3" data-name="Layer 3" xmlns="http://www.w3.org/2000/svg" viewBox="0 0 401.5 470.64">
<defs><style>.cls-1{fill:#11d1b;}</style></defs><title>logo</title><path class="cls-1" d="M576.48,756c-12.39-49.4-63.61-77-111.37-80-49.25-3-97.45,19.7-126.2,59.66-27.59,38.36-34.54,91.4-16.13,135,17.62,41.75,56.31,75.45,101.45,83.55,53.37,9.57,108.9-13.86,138.88-59.14,5.17-7.81,1.79-20.1-6.41-24.44-9-4.73-18.92-1.92-24.44,6.41-1.34,2-2.73,4-4.18,5.95,2.23-3,.25-.37-.36.36q-1.16,1.39-2.36,2.75a114.41,114.41,0,0,1-10.29,10.19q-1.37,1.19-2.77,2.34c-.74.61-3.41,2.54-.38.34-2,1.42-3.91,2.84-5.94,4.17a122.65,122.65,0,0,1-12.58,7.24q-1.63.81-3.28,1.57c-.88.41-4,1.71-.39.24q-3.36,1.38-6.8,2.58a122.21,122.21,0,0,1-14,3.94c-2.37.52-4.75.92-7.14,1.34-.88.15-3.45.29.43,0-1.2.1-2.41.27-3.61.37a114.55,114.55,0,0,1-15.22.34q-3.26-.15-6.51-.48c-1.06-.11-4.35-.7-.3,0-1-.17-1.92-.3-2.87-.47a111.3,111.3,0,0,1-15.31-3.88c-2-.67-4-1.5-6.07-2.2-2.72-.93,3.85,1.78-.36-.14-.87-.4-1.74-.79-2.61-1.2a121.3,121.3,0,0,1-13.19-7.28q-2.73-1.73-5.37-3.61c-.53-.38-4.38-3.29-1-.65-.76-.59-1.5-1.19-2.24-1.8a126.11,126.11,0,0,1-11.08-10.26q-2.24-2.34-4.36-4.79c-.94-1.09-1.84-2.21-2.77-3.31-.51-.6-2-2.71.14.21-2.8-3.91-5.53-7.81-8-12a124,124,0,0,1-6.48-12.81c1.5,3.43.43,1,.17.28-.48-1.35-1-2.69-1.49-4q-1.17-3.4-2.13-6.87t-1.74-7.24c-.2-.94-1.39-8.54-.83-4.13a120.47,120.47,0,0,1-.93-14.94,134.49,134.49,0,0,1,.9-15c-.46,4.15.38-2.16.62-3.41q.76-4.06,1.77-8.06a130,130,0,0,1,4.27-13.61c.44-1.17.91-2.33,1.37-3.5-1.29,3.28-.34.8,0,.12,1.29-2.72,2.55-5.43,4-8.09a126.9,126.9,0,0,1,7.43-12.16c.71-1,1.45-2,2.18-3.05,2-2.72.37-.48-.05,0,1.89-2.33,3.82-4.62,5.86-6.83a116.78,116.78,0,0,1,9.75-9.38q1.73-1.48,3.52-2.89c-.54.43-2.73,2,0,0,2.48-1.75,5-3.48,7.54-5.08a124.85,124.85,0,0,1,12-6.54c1.14-.54,2.3-1,3.44-1.58,2.69-1.28-3.92,1.47.63-.25,2.6-1,5.21-2,7.86-2.8a133.24,133.24,0,0,1,13.95-3.66c2.48-.51,5-.9,7.48-1.31-3.7.61-1,.13-.23.05,1.77-.16,3.53-.36,5.3-.48a131.8,131.8,0,0,1,16.7-.14c2.78.15,5.55.43,8.31.73-3.92-.42-.48-.05.51.11q2.62.43,5.22,1a121.39,121.39,0,0,1,16.07,4.48c.94.33,1.87.71,2.81,1,3.92,1.36-2.25-1.14,1.2.47,2.7,1.26,5.38,2.53,8,4q3.6,2,7,4.2,1.56,1,3.09,2.08c.41.29,4.32,3.3,1.15.76a97.25,97.25,0,0,1,11.81,11.1c1,1.09,1.91,2.22,2.83,3.35-1.95-2.38-.12-.12.69,1.06q2.06,3,3.84,6.16c.71,1.27,1.31,2.59,2,3.86,1.79,3.3-.89-2.79.5,1.07a86.41,86.41,0,0,1,2.6,8.38c2.27,9.06,12.94,15.4,22,12.47,9.38-3,14.91-12.26,12.47-22Z" transform="translate(-179.49 -675.71)"/><path class="cls-1" d="M398.31,823.69q-.57,5.06-1.22,10.12c.42-3.23-.28,1.89-.41,2.82q-.43,2.94-.9,5.88Q394.12,853,392,863.39q-4.4,21.63-10.69,42.82-6.16,20.76-14.07,40.94c-1.34,3.43-2.74,6.83-4.14,10.23-.79,1.91,0,0,.15-.35l-1,2.34q-1.18,2.73-2.39,5.44-4.51,10.08-9.45,20a502,502,0,0,1-45.7,74.43q-1.52,2-3.06,4.08l-1.54,2c.22-.28,1.46-1.85.2-.26-2.24,2.84-4.48,5.69-6.77,8.49a209.65,209.65,0,0,1-14.06,15.68c-2.29,2.28-4.64,4.48-7.09,6.58-1.21,1-2.44,2.08-3.71,3.05,2.65-2-2,1.32-2.84,1.87a79.59,79.59,0,0,1-8.22,4.75c-1,.51-4.35,1.78-1.53.77-1.71.61-3.4,1.25-5.14,1.76-1.46.43-2.95.72-4.43,1.09-3.34.84,3-.12-.44.12-2.87.19-5.68.22-8.56.13a6.21,6.21,0,0,1-2-.15c-.06,0,3.59.69,1.48.21-1.28-.29-2.58-.46-3.86-.76q-2.22-.52-4.39-1.24c-.6-.2-1.21-.49-1.83-.65-2.18-.56,2.61,1.48.72.3-2.1-1.31-4.4-2.61-6.56-3.82-1.83-1,1.28.89,1.13.88s-1.19-1-1.4-1.24c-.56-.56-3-2.34-3-3.14,0,.66,1.8,2.81.54.63-.31-.54-.68-1.06-1-1.59s-2-4.14-1.08-1.84-.42-1.59-.61-2.26a7,7,0,0,1-.45-1.94c-.25.34.2,3.69.12.83,0-1.31,0-2.62-.06-3.93,0-.52-.25-2.64-.09-.24s0,0,.19-.87c.31-1.29.6-2.57,1-3.84.2-.64.43-1.26.64-1.89.7-2.08.42-.5-.24.56,1.41-2.28,2.78-4.69,4.13-7-1.48,2.55-.52.61.63-.68a50.14,50.14,0,0,1,3.88-3.91c1.23-1.11,3.22-2.25.67-.67,1.17-.73,2.26-1.56,3.45-2.27s2.4-1.33,3.62-2c.41-.21,2.48-.92.37-.19-2.32.8.86-.22,1.22-.33q2.41-.78,4.89-1.33c1.11-.25,5.9-.71,2.7-.55a94.08,94.08,0,0,1,10.9-.13c.84.06,1.68.16,2.52.21-.33,0-2.66-.46-.55-.09,1.68.29,3.35.58,5,.94a96.06,96.06,0,0,1,11.54,3.32c.81.29,1.62.59,2.43.89.08,0,2.72,1.07,1.06.39s.95.43,1,.47l2.34,1.1c3.39,1.63,6.7,3.42,9.94,5.33,13.4,7.88,25.58,17.59,38.09,26.77,24.95,18.29,52.9,32.59,83.36,39,56.22,11.74,119.5-3.8,156.1-50.37a141.36,141.36,0,0,0,12.61-18.51c4.55-8.16,2.24-19.87-6.41-24.44-8.41-4.44-19.58-2.31-24.44,6.41-1.57,2.82-3.23,5.59-5,8.28-1,1.44-2,2.85-3,4.25-.17.24-1.72,2.16-.41.55s-.7.8-.93,1.08a120.14,120.14,0,0,1-14.09,14.23c-.75.65-1.52,1.27-2.28,1.91-.21.18-2.16,1.74-.53.45,1.47-1.17-1.82,1.33-2.37,1.72q-4.26,3-8.74,5.73-4.17,2.5-8.52,4.7-2.34,1.18-4.73,2.27c-.68.31-1.37.61-2.05.92,1.46-.68,1.81-.72.12-.06a145.86,145.86,0,0,1-19.29,6.12q-4.74,1.13-9.54,1.92c-1,.16-2,.31-3,.45.29,0,3.23-.32.92-.15-2,.15-4,.41-6,.56a153.14,153.14,0,0,1-24.09-.21c-1.72-.15-3.43-.36-5.14-.53.34,0,2.59.4.48.07-1.14-.18-2.27-.34-3.41-.53q-6-1-11.84-2.41a181.78,181.78,0,0,1-22.31-6.92c-1.62-.62-3.24-1.25-4.84-1.92,2.79,1.16-2.16-1-2.89-1.33q-5.52-2.54-10.87-5.42c-14.09-7.58-26.86-17.12-39.66-26.66-26.12-19.47-56.59-38.93-90.72-36.12-16.81,1.39-32.34,7.32-44.51,19.26-11.21,11-18.43,26-19.1,41.7-1.39,32.74,28.65,54,58.62,55.49,31.58,1.59,58.21-19.84,77.52-42.59a498.53,498.53,0,0,0,53.6-77.23,520,520,0,0,0,61.34-175.8q2-12.86,3.41-25.79c1-9.32-9-18.26-17.86-17.86-10.57.47-16.74,7.88-17.86,17.86Z" transform="translate(-179.49 -675.71)"/><path class="cls-1" d="M459.16,821.36c-26,75.24-28.68,158.16-8.15,235,2.41,9,12.84,15.43,22,12.47s15.06-12.3,12.47-22c-2.5-9.37-4.68-18.82-6.48-28.35q-1.34-7.15-2.41-14.34c-.09-.63-.79-5.72-.36-2.45q-.47-3.6-.86-7.22a386.84,386.84,0,0,1-2.06-56.27q.49-13.63,1.94-27.2c.26-2.41.55-4.82.84-7.22q.42-3.28.08-.66.25-1.8.52-3.6,1.08-7.19,2.43-14.34a384.33,384.33,0,0,1,14.51-54.4c3.06-8.84-3.49-19.92-12.47-22-9.95-2.27-18.69,3-22,12.47Z" transform="translate(-179.49 -675.71)"/></svg>
