<svg xmlns="http://www.w3.org/2000/svg" viewBox="0 0 479.68 479.68"><defs><style>.cls-1{fill:#fff;}</style></defs><title>Asset 1</title><g id="Layer_2" data-name="Layer 2"><g id="Layer_3" data-name="Layer 3"><path class="cls-1" d="M249.33,62.11c-2.73,2-.54.43,0,0Z"/><path class="cls-1" d="M301.69,41c-.91.13-2.53.41,0,0Z"/><path class="cls-1" d="M228.86,209.3c-1.56-2.13-.56-.7,0,0Z"/><path class="cls-1" d="M288.89,438.7h0Z"/><path class="cls-1" d="M216.06,105.86Z"/><path class="cls-1" d="M355.53,430.27l-.47.21C356.28,430,356.29,429.94,355.53,430.27Z"/><path class="cls-1" d="M289.28,438.76c1.65.26.64.07,0,0l-.34,0Z"/><path class="cls-1" d="M355.06,430.48h0l-.21.1Z"/><path class="cls-1" d="M0,0V479.68H479.68V0ZM438.32,402.53A141.35,141.35,0,0,1,425.71,421c-36.6,46.57-99.88,62.11-156.1,50.37-30.46-6.41-58.41-20.71-83.36-39q-3.69-2.71-7.35-5.46-1.8,2.19-3.63,4.36C156,454.06,129.33,475.49,97.75,473.9c-30-1.49-60-22.75-58.62-55.49.67-15.7,7.89-30.7,19.1-41.7,12.17-11.94,27.7-17.87,44.51-19.26,24.93-2.05,47.9,7.78,68.66,20.82a502,502,0,0,0,38.66-64.67q4.94-9.92,9.45-20,1.21-2.71,2.39-5.44l.84-2v0c1.4-3.4,2.8-6.8,4.14-10.23,1.92-4.9,3.73-9.83,5.5-14.78a145.18,145.18,0,0,1-50-61.71C164,155.84,171,102.8,198.56,64.44c28.75-40,77-62.66,126.2-59.66,47.76,3,99,30.6,111.37,80l0-.18a18.22,18.22,0,0,1-12.47,22c-9.06,2.93-19.73-3.41-22-12.47a86.41,86.41,0,0,0-2.6-8.38l-.17-.48-.33-.59c-.69-1.27-1.29-2.59-2-3.86q-1.78-3.16-3.84-6.16c-.81-1.18-2.64-3.44-.69-1.06-.92-1.13-1.83-2.26-2.83-3.35a97.25,97.25,0,0,0-10.61-10.11c-.23-.14-2.07-1.56-2.35-1.75q-1.53-1.08-3.09-2.08-3.4-2.2-7-4.2c-2.62-1.47-5.3-2.74-8-4l-.47-.22-.73-.25c-.94-.29-1.87-.67-2.81-1A121.38,121.38,0,0,0,338,42.16q-2.6-.57-5.22-1c-.47-.08-1.51-.2-2-.26-2.26-.24-4.52-.45-6.79-.58a131.8,131.8,0,0,0-16.7.14c-1.77.12-3.53.32-5.3.48l-.3,0c-2.31.38-4.65.75-7,1.22a133.24,133.24,0,0,0-13.95,3.66c-2.65.8-5.26,1.8-7.86,2.8l-.5.19-.13.06c-1.14.58-2.3,1-3.44,1.58a124.84,124.84,0,0,0-12,6.54c-2.54,1.6-5.06,3.33-7.54,5.08q-1.79,1.41-3.52,2.89a116.8,116.8,0,0,0-9.75,9.38c-1.88,2-3.67,4.16-5.42,6.3l-.39.53c-.73,1-1.47,2-2.18,3a126.89,126.89,0,0,0-7.43,12.16c-1.45,2.66-2.71,5.37-4,8.09-.12.24-.31.68-.45,1-.31.78-.62,1.56-.92,2.34A130,130,0,0,0,211,121.5q-1,4-1.77,8.06c-.2,1-.82,5.59-.75,4.68a134.48,134.48,0,0,0-.77,13.73,120.47,120.47,0,0,0,.78,13.59c0-.29.82,4.72,1,5.48q.78,3.77,1.74,7.24t2.13,6.87c.49,1.31,1,2.65,1.49,4,.07.19.19.49.31.78a124,124,0,0,0,6,11.75c2.41,4.09,5.07,7.9,7.79,11.71l.07.08c.93,1.1,1.83,2.22,2.77,3.31q2.12,2.45,4.36,4.79,3.69,3.85,7.7,7.37,4.46-16.26,7.82-32.77,2.12-10.39,3.78-20.88.47-2.94.9-5.88c.09-.63.43-3.16.52-3.75q.58-4.6,1.11-9.19l-.06,0c1.12-10,7.29-17.39,17.86-17.86,8.86-.4,18.86,8.54,17.86,17.86q-1.41,12.93-3.41,25.79a520,520,0,0,1-14.68,65.52c.84.32,1.68.63,2.52.91a111.29,111.29,0,0,0,15.31,3.88c1,.17,1.87.3,2.87.47l-1.91-.33c.28,0,1.61.26,2.21.33l1.77.16a398.57,398.57,0,0,1,20.51-99.08V150c3.31-9.47,12-14.74,22-12.47,9,2.08,15.53,13.16,12.47,22A384.33,384.33,0,0,0,338.77,214q-1.35,7.15-2.43,14.34-.25,1.67-.48,3.33l-.12.93c-.29,2.4-.58,4.81-.84,7.22q-.34,3.15-.62,6.31c2.79-.75,5.56-1.59,8.3-2.54,1.77-.62,3.51-1.28,5.25-2,.39-.17,1.48-.64,1.94-.85q1.65-.76,3.28-1.57a122.67,122.67,0,0,0,12.58-7.24c1.7-1.11,3.32-2.29,5-3.47.43-.32,1.05-.79,1.35-1q1.4-1.15,2.77-2.34A114.41,114.41,0,0,0,385,214.88q1.2-1.36,2.36-2.75c.28-.33.84-1.06,1.16-1.47,1.16-1.6,2.29-3.21,3.38-4.84,5.52-8.33,15.44-11.14,24.44-6.41,8.2,4.34,11.58,16.63,6.41,24.44-20.8,31.41-53.9,52.3-90,59a386.82,386.82,0,0,0,2.3,40.45c.23,2.14.49,4.27.76,6.4.11.75.4,2.88.46,3.27q1.07,7.19,2.41,14.34c1.8,9.53,4,19,6.48,28.35,2.59,9.7-3.31,19-12.47,22s-19.59-3.47-22-12.47a404.05,404.05,0,0,1-13.58-100.47c-4.41-.35-8.81-.89-13.2-1.68a123,123,0,0,1-19.58-5.24,520,520,0,0,1-35.43,76.33A498.5,498.5,0,0,1,200.5,398.8c10.48,7.74,21.11,15.24,32.62,21.44q5.35,2.88,10.87,5.42c.61.27,4.12,1.81,3.68,1.65q2,.82,4,1.6A181.79,181.79,0,0,0,274,435.82q5.84,1.41,11.84,2.41c1,.17,2,.31,3,.46l.39,0c1.57.16,3.13.35,4.71.48a153.13,153.13,0,0,0,24.09.21c2-.15,4-.41,6-.56h.15l1.93-.29q4.8-.79,9.54-1.92a145.87,145.87,0,0,0,19.29-6.12l.09,0,.5-.22,1.34-.6q2.39-1.09,4.73-2.27,4.35-2.2,8.52-4.7,4.48-2.73,8.74-5.73c.4-.29,2.27-1.7,2.67-2l.23-.19c.76-.64,1.53-1.26,2.28-1.91a120.14,120.14,0,0,0,14.09-14.23l1.08-1.3.26-.33c1-1.4,2-2.81,3-4.25,1.77-2.69,3.43-5.46,5-8.28,4.86-8.72,16-10.85,24.44-6.41C440.56,382.66,442.87,394.37,438.32,402.53Z"/><path class="cls-1" d="M114.85,393.2c-1.93-.34-.16,0,.42.08h.06Z"/><path class="cls-1" d="M138.22,400.31l-2.34-1.1s-.91-.4-1.33-.59-.7-.27-.73-.27l-2.43-.89a96.06,96.06,0,0,0-11.54-3.32c-1.49-.33-3-.59-4.51-.85h-.07c-.8-.05-1.59-.14-2.39-.2a94.09,94.09,0,0,0-10.9.13c3.2-.16-1.59.3-2.7.55q-2.48.55-4.89,1.33l-1.45.45-.14.07c-1.22.67-2.43,1.29-3.62,2s-2.28,1.54-3.45,2.27c2.55-1.58.56-.44-.67.67a50.16,50.16,0,0,0-3.88,3.91,12.54,12.54,0,0,0-1,1.29c-1.2,2.06-2.41,4.17-3.66,6.2-.17.51-.35,1-.52,1.52-.4,1.27-.69,2.55-1,3.84a7.23,7.23,0,0,0-.1,1.17c.06,1.27.06,2.53.06,3.8a7,7,0,0,0,.33,1.18c.09.32.43,1.34.67,2.1s.85,1.73,1,2c.32.53.69,1,1,1.59.17.29.28.5.35.65.76.74,1.77,1.52,2.11,1.86.08.09.26.27.48.48,2,1.14,4.17,2.35,6.14,3.58.45.16.89.33,1.32.48q2.17.72,4.39,1.24c1.19.28,2.39.45,3.58.71a6.2,6.2,0,0,0,.8,0c2.87.09,5.68.06,8.54-.13l.46-.12c1.48-.37,3-.66,4.43-1.09,1.74-.51,3.43-1.15,5.14-1.76-2.82,1,.53-.26,1.53-.77a79.58,79.58,0,0,0,8.22-4.75c.61-.4,3.18-2.22,3.58-2.47,1-.81,2-1.65,3-2.45,2.45-2.1,4.8-4.3,7.09-6.58q5.48-5.53,10.54-11.45c-.5-.3-1-.62-1.51-.92C144.92,403.73,141.61,401.94,138.22,400.31Z"/><path class="cls-1" d="M80.17,405.8c-.42.63-.55.92,0,0Z"/><path class="cls-1" d="M115.4,393.29h0Z"/><path class="cls-1" d="M81.43,432.59a1.65,1.65,0,0,0,.43.31S81.7,432.77,81.43,432.59Z"/><path class="cls-1" d="M76.66,411.58l-.12.35C77.11,410.9,77.31,409.63,76.66,411.58Z"/></g></g></svg>